<?xml version="1.0" encoding="utf-8"?>
<!-- Svg Vector Icons : http://www.onlinewebfonts.com/icon -->
<!DOCTYPE svg PUBLIC "-//W3C//DTD SVG 1.1//EN" "http://www.w3.org/Graphics/SVG/1.1/DTD/svg11.dtd">
<svg version="1.1" xmlns="http://www.w3.org/2000/svg" xmlns:xlink="http://www.w3.org/1999/xlink" x="0px" y="0px" viewBox="0 0 1000 1000" enable-background="new 0 0 1000 1000" xml:space="preserve">
<metadata> Svg Vector Icons : http://www.onlinewebfonts.com/icon </metadata>
<g><path d="M500,990C229.8,990,10,770.2,10,500C10,229.8,229.8,10,500,10c270.2,0,490,219.8,490,490C990,770.2,770.2,990,500,990z M500,73.6C264.9,73.6,73.6,264.9,73.6,500c0,235.1,191.3,426.4,426.4,426.4c235.1,0,426.4-191.3,426.4-426.4C926.4,264.9,735.1,73.6,500,73.6z"/><path d="M506.4,647.2c-17.6,0-31.8-14.3-31.8-31.8V207.3c0-17.6,14.3-31.8,31.8-31.8c17.6,0,31.8,14.3,31.8,31.8v408.1C538.2,632.9,523.9,647.2,506.4,647.2z"/><path d="M474.5,735.5c0,17.6,14.2,31.8,31.8,31.8c17.6,0,31.8-14.2,31.8-31.8c0-17.6-14.2-31.8-31.8-31.8C488.8,703.6,474.5,717.9,474.5,735.5z"/></g>
</svg>